<svg xmlns="http://www.w3.org/2000/svg" width="1500" height="760" viewBox="0 0 1500 760" role="img" aria-label="Direct CV conditioning schematic">
  <defs>
    <style>
      .bg { fill: #f7f6f2; }
      .box { fill: #ffffff; stroke: #222; stroke-width: 2.2; rx: 14; ry: 14; }
      .block { fill: #eef3ff; stroke: #1d3b66; stroke-width: 2.2; rx: 14; ry: 14; }
      .label { fill: #111; font-family: Arial, Helvetica, sans-serif; font-size: 20px; font-weight: 700; }
      .small { fill: #333; font-family: Arial, Helvetica, sans-serif; font-size: 15px; }
      .tiny { fill: #555; font-family: Arial, Helvetica, sans-serif; font-size: 12px; }
      .wire { stroke: #2f2f2f; stroke-width: 3; fill: none; stroke-linecap: round; stroke-linejoin: round; }
      .lead { stroke: #2f2f2f; stroke-width: 2.2; fill: none; stroke-linecap: round; }
      .node { fill: #2f2f2f; }
      .rail3v3 { stroke: #a11; stroke-width: 3; fill: none; }
      .railgnd { stroke: #222; stroke-width: 3; fill: none; }
      .arrow { marker-end: url(#arrow); }
    </style>
    <marker id="arrow" viewBox="0 0 10 10" refX="8" refY="5" markerWidth="7" markerHeight="7" orient="auto-start-reverse">
      <path d="M 0 0 L 10 5 L 0 10 z" fill="#2f2f2f"/>
    </marker>

    <g id="res-1k">
      <line class="lead" x1="0" y1="8" x2="10" y2="8"/>
      <rect x="10" y="0" width="56" height="16" rx="3" ry="3" fill="#f2d5a0" stroke="#6f4f1a" stroke-width="1.1"/>
      <rect x="24" y="0" width="4" height="16" fill="#8b5a2b"/>
      <rect x="32" y="0" width="4" height="16" fill="#111111"/>
      <rect x="40" y="0" width="4" height="16" fill="#c62828"/>
      <rect x="52" y="0" width="4" height="16" fill="#d4af37"/>
      <line class="lead" x1="66" y1="8" x2="76" y2="8"/>
    </g>

    <g id="res-100k">
      <line class="lead" x1="0" y1="8" x2="10" y2="8"/>
      <rect x="10" y="0" width="56" height="16" rx="3" ry="3" fill="#f2d5a0" stroke="#6f4f1a" stroke-width="1.1"/>
      <rect x="24" y="0" width="4" height="16" fill="#8b5a2b"/>
      <rect x="32" y="0" width="4" height="16" fill="#111111"/>
      <rect x="40" y="0" width="4" height="16" fill="#f2c94c"/>
      <rect x="52" y="0" width="4" height="16" fill="#d4af37"/>
      <line class="lead" x1="66" y1="8" x2="76" y2="8"/>
    </g>

    <g id="cap-1nf">
      <line class="lead" x1="0" y1="0" x2="0" y2="18"/>
      <line class="lead" x1="-10" y1="18" x2="10" y2="18"/>
      <line class="lead" x1="-10" y1="26" x2="10" y2="26"/>
      <line class="lead" x1="0" y1="26" x2="0" y2="46"/>
    </g>

    <g id="gnd">
      <line class="lead" x1="0" y1="0" x2="0" y2="6"/>
      <line class="lead" x1="-12" y1="6" x2="12" y2="6"/>
      <line class="lead" x1="-8" y1="11" x2="8" y2="11"/>
      <line class="lead" x1="-4" y1="16" x2="4" y2="16"/>
    </g>
  </defs>

  <rect class="bg" x="0" y="0" width="1500" height="760"/>

  <text class="label" x="40" y="46">Direct CV conditioning schematic</text>
  <text class="small" x="40" y="74">One channel only. Repeat this block for AD1, AD2, and AD3.</text>

  <path class="rail3v3" d="M 1080 90 L 1410 90"/>
  <text class="small" x="1088" y="80">3V3</text>
  <path class="railgnd" d="M 920 700 L 1410 700"/>
  <text class="small" x="922" y="692">GND</text>

  <rect class="box" x="40" y="250" width="170" height="140"/>
  <text class="label" x="125" y="290" text-anchor="middle">J1</text>
  <text class="small" x="125" y="320" text-anchor="middle">CV input</text>
  <text class="small" x="125" y="344" text-anchor="middle">source jack</text>
  <text class="tiny" x="125" y="372" text-anchor="middle">share ground with board</text>

  <path class="wire arrow" d="M 210 320 L 270 320"/>

  <text class="label" x="270" y="150">SW1</text>
  <text class="small" x="270" y="172">3-position mode switch</text>
  <circle class="node" cx="300" cy="320" r="5"/>
  <circle class="node" cx="390" cy="220" r="5"/>
  <circle class="node" cx="390" cy="320" r="5"/>
  <circle class="node" cx="390" cy="520" r="5"/>
  <line class="wire" x1="300" y1="320" x2="382" y2="320"/>
  <line class="wire" x1="300" y1="320" x2="372" y2="230"/>
  <line class="wire" x1="300" y1="320" x2="372" y2="510"/>
  <text class="tiny" x="410" y="224">Pos 1: direct 0-5 V</text>
  <text class="tiny" x="410" y="324">Pos 2: 0-10 V attenuate</text>
  <text class="tiny" x="410" y="524">Pos 3: bipolar shift</text>

  <!-- direct path -->
  <path class="wire" d="M 390 220 L 580 220 L 580 320"/>

  <!-- attenuated path -->
  <use href="#res-100k" x="430" y="312"/>
  <text class="tiny" x="470" y="304">R1 100k</text>
  <circle class="node" cx="550" cy="320" r="4.5"/>
  <path class="wire" d="M 506 320 L 550 320 L 580 320"/>
  <use href="#res-100k" x="512" y="392" transform="rotate(90 550 400)"/>
  <text class="tiny" x="570" y="402">R2 100k</text>
  <path class="wire" d="M 550 438 L 550 490"/>
  <use href="#gnd" x="550" y="490"/>

  <!-- bipolar path -->
  <path class="wire" d="M 390 520 L 470 520"/>
  <polygon points="470,470 470,570 590,520" fill="#eef3ff" stroke="#1d3b66" stroke-width="2.2"/>
  <text class="small" x="522" y="454" text-anchor="middle">U1 MCP6002-I/P</text>
  <text class="tiny" x="520" y="590" text-anchor="middle">bipolar level shifter</text>
  <path class="wire" d="M 590 520 L 640 520 L 640 320 L 580 320"/>
  <circle class="node" cx="640" cy="320" r="4.5"/>

  <circle class="node" cx="500" cy="520" r="4.5"/>
  <path class="wire" d="M 500 520 L 500 160"/>
  <use href="#res-100k" x="462" y="152" transform="rotate(90 500 160)"/>
  <text class="tiny" x="520" y="160">R3 100k</text>
  <path class="wire" d="M 500 90 L 1080 90"/>

  <path class="wire" d="M 500 520 L 500 620"/>
  <use href="#res-100k" x="462" y="584" transform="rotate(90 500 592)"/>
  <text class="tiny" x="520" y="604">R4 100k</text>
  <path class="wire" d="M 500 628 L 500 700"/>
  <use href="#gnd" x="500" y="700"/>
  <text class="tiny" x="534" y="520">Vref = 1.65 V</text>

  <!-- shared output stage -->
  <circle class="node" cx="580" cy="320" r="5"/>
  <use href="#res-1k" x="620" y="312"/>
  <text class="tiny" x="660" y="304">R5 1k</text>
  <path class="wire" d="M 580 320 L 620 320"/>
  <path class="wire" d="M 696 320 L 840 320"/>
  <circle class="node" cx="840" cy="320" r="5"/>

  <rect class="block" x="900" y="238" width="180" height="124"/>
  <text class="small" x="990" y="272" text-anchor="middle">D1/D2 1N4148-DIO</text>
  <text class="tiny" x="990" y="294" text-anchor="middle">small-signal clamp pair</text>
  <text class="tiny" x="990" y="314" text-anchor="middle">to 3V3 and GND</text>
  <path class="wire" d="M 840 320 L 900 320"/>
  <path class="wire" d="M 990 238 L 990 90"/>
  <path class="wire" d="M 990 362 L 990 700"/>

  <use href="#cap-1nf" x="1120" y="320"/>
  <text class="tiny" x="1148" y="350">C1 1 nF</text>
  <path class="wire" d="M 840 320 L 1120 320"/>
  <path class="wire" d="M 1120 366 L 1120 700"/>
  <use href="#gnd" x="1120" y="700"/>

  <path class="wire arrow" d="M 1080 320 L 1290 320"/>
  <rect class="box" x="1290" y="250" width="170" height="140"/>
  <text class="label" x="1375" y="292" text-anchor="middle">ADC IN</text>
  <text class="small" x="1375" y="322" text-anchor="middle">AD1 / AD2 / AD3</text>
  <text class="tiny" x="1375" y="350" text-anchor="middle">one conditioning block</text>
  <text class="tiny" x="1375" y="368" text-anchor="middle">per direct CV channel</text>

  <rect class="box" x="40" y="620" width="400" height="90"/>
  <text class="small" x="60" y="650">Mode summary</text>
  <text class="tiny" x="60" y="674">Pos 1: use the direct path for 0-5 V signals.</text>
  <text class="tiny" x="60" y="692">Pos 2: use the 100k / 100k divider for 0-10 V signals.</text>
  <text class="tiny" x="60" y="710">Pos 3: use the MCP6002-I/P stage to shift bipolar signals into the ADC range.</text>
</svg>