<svg xmlns="http://www.w3.org/2000/svg" width="1500" height="520" viewBox="0 0 1500 520" role="img" aria-label="CV conditioning block diagram">
  <defs>
    <style>
      .bg { fill: #f7f6f2; }
      .box { fill: #ffffff; stroke: #222; stroke-width: 2.5; rx: 16; ry: 16; }
      .mode { fill: #eef3ff; stroke: #1d3b66; stroke-width: 2.5; rx: 14; ry: 14; }
      .label { fill: #111; font-family: Arial, Helvetica, sans-serif; font-size: 18px; font-weight: 700; }
      .small { fill: #333; font-family: Arial, Helvetica, sans-serif; font-size: 14px; }
      .tiny { fill: #555; font-family: Arial, Helvetica, sans-serif; font-size: 12px; }
      .wire { stroke: #2f2f2f; stroke-width: 3.5; fill: none; }
      .dash { stroke-dasharray: 8 6; }
      .arrow { marker-end: url(#arrow); }
    </style>
    <marker id="arrow" viewBox="0 0 10 10" refX="8" refY="5" markerWidth="8" markerHeight="8" orient="auto-start-reverse">
      <path d="M 0 0 L 10 5 L 0 10 z" fill="#2f2f2f"/>
    </marker>
  </defs>

  <rect class="bg" x="0" y="0" width="1500" height="520"/>

  <text class="label" x="40" y="44">CV conditioning block only</text>
  <text class="small" x="40" y="70">One block per direct CV channel. The mode switch selects one of three conditioning paths before the ADC input.</text>

  <rect class="box" x="40" y="160" width="180" height="170"/>
  <text class="label" x="130" y="198" text-anchor="middle">CV IN</text>
  <text class="small" x="130" y="228" text-anchor="middle">external CV source</text>
  <text class="small" x="130" y="250" text-anchor="middle">0-5 V preferred</text>
  <text class="small" x="130" y="272" text-anchor="middle">0-10 V or bipolar</text>
  <text class="tiny" x="130" y="296" text-anchor="middle">share GND with board</text>

  <path class="wire arrow" d="M 220 245 L 285 245"/>

  <rect class="mode" x="285" y="110" width="190" height="270"/>
  <text class="label" x="380" y="145" text-anchor="middle">3-position</text>
  <text class="label" x="380" y="170" text-anchor="middle">mode switch</text>
  <text class="small" x="380" y="205" text-anchor="middle">Pos 1</text>
  <text class="tiny" x="380" y="226" text-anchor="middle">direct 0-5 V</text>
  <text class="small" x="380" y="258" text-anchor="middle">Pos 2</text>
  <text class="tiny" x="380" y="279" text-anchor="middle">0-10 V attenuate</text>
  <text class="small" x="380" y="311" text-anchor="middle">Pos 3</text>
  <text class="tiny" x="380" y="332" text-anchor="middle">bipolar shift</text>

  <path class="wire arrow" d="M 475 245 L 545 245"/>

  <rect class="box" x="545" y="70" width="280" height="350"/>
  <text class="label" x="685" y="106" text-anchor="middle">Conditioning block</text>

  <rect class="box" x="575" y="135" width="220" height="70"/>
  <text class="small" x="685" y="162" text-anchor="middle">Mode 1: direct path</text>
  <text class="tiny" x="685" y="182" text-anchor="middle">1 k series + 1N4148-DIO clamp pair + 1 nF</text>

  <rect class="box" x="575" y="220" width="220" height="70"/>
  <text class="small" x="685" y="247" text-anchor="middle">Mode 2: attenuated path</text>
  <text class="tiny" x="685" y="267" text-anchor="middle">100k / 100k divider + 1 k + 1N4148-DIO</text>

  <rect class="box" x="575" y="305" width="220" height="70"/>
  <text class="small" x="685" y="332" text-anchor="middle">Mode 3: bipolar path</text>
  <text class="tiny" x="685" y="352" text-anchor="middle">MCP6002-I/P mid-rail bias + 1N4148-DIO</text>

  <path class="wire dash" d="M 685 205 L 685 220"/>
  <path class="wire dash" d="M 685 290 L 685 305"/>

  <path class="wire arrow" d="M 825 245 L 900 245"/>

  <rect class="box" x="900" y="150" width="250" height="190"/>
  <text class="label" x="1025" y="188" text-anchor="middle">ADC input</text>
  <text class="small" x="1025" y="218" text-anchor="middle">AD1, AD2, or AD3</text>
  <text class="small" x="1025" y="240" text-anchor="middle">one direct CV channel</text>
  <text class="small" x="1025" y="262" text-anchor="middle">per conditioning block</text>
  <text class="tiny" x="1025" y="292" text-anchor="middle">AARCH64 runtime samples voltage here</text>

  <path class="wire arrow" d="M 1150 245 L 1280 245"/>

  <rect class="box" x="1280" y="150" width="180" height="190"/>
  <text class="label" x="1370" y="188" text-anchor="middle">To ADC</text>
  <text class="small" x="1370" y="218" text-anchor="middle">Waveshare</text>
  <text class="small" x="1370" y="240" text-anchor="middle">AD1-AD3</text>
  <text class="tiny" x="1370" y="270" text-anchor="middle">one block per channel</text>
</svg>
