<svg xmlns="http://www.w3.org/2000/svg" width="1800" height="1420" viewBox="0 0 1800 1420" role="img" aria-label="Direct CV conditioning perfboard placement map on a square 2.54 pitch grid">
  <defs>
    <style>
      .bg { fill: #f6f3ea; }
      .panel { fill: #fffdf8; stroke: #202020; stroke-width: 2.5; rx: 20; ry: 20; }
      .board { fill: #3b7b4a; stroke: #21492a; stroke-width: 2.5; rx: 18; ry: 18; }
      .pad { fill: #d7a44a; stroke: #7b5320; stroke-width: 1; }
      .title { fill: #111; font-family: Arial, Helvetica, sans-serif; font-size: 30px; font-weight: 700; }
      .subtitle { fill: #333; font-family: Arial, Helvetica, sans-serif; font-size: 17px; }
      .note { fill: #111; font-family: Arial, Helvetica, sans-serif; font-size: 20px; font-weight: 700; }
      .small { fill: #333; font-family: Arial, Helvetica, sans-serif; font-size: 14px; }
      .tiny { fill: #555; font-family: Arial, Helvetica, sans-serif; font-size: 12px; }
      .legend { fill: #f6f1e4; font-family: Arial, Helvetica, sans-serif; font-size: 13px; font-weight: 700; }
      .coord { fill: #34452d; font-family: Arial, Helvetica, sans-serif; font-size: 12px; font-weight: 700; }
      .pinlabel { fill: #173454; font-family: Arial, Helvetica, sans-serif; font-size: 11px; font-weight: 700; }
      .passive { fill: #fff8e8; stroke: #8a5b00; stroke-width: 2; rx: 8; ry: 8; }
      .callout { fill: #fffdf8; opacity: 0.95; stroke: #a89a82; stroke-width: 1.1; rx: 8; ry: 8; }
      .net3 { stroke: #a11; stroke-width: 4; fill: none; stroke-linecap: round; stroke-linejoin: round; }
      .netg { stroke: #1f1f1f; stroke-width: 4; fill: none; stroke-linecap: round; stroke-linejoin: round; }
      .netsig { stroke: #2366a8; stroke-width: 4; fill: none; stroke-linecap: round; stroke-linejoin: round; }
      .netbias { stroke: #8a4f00; stroke-width: 4; fill: none; stroke-linecap: round; stroke-linejoin: round; }
      .dot3 { fill: #a11; }
      .dotg { fill: #1f1f1f; }
      .dots { fill: #2366a8; }
      .dotbias { fill: #8a4f00; }
      .table-head { fill: #ebe3d2; stroke: #b9a98d; stroke-width: 1.2; }
      .table-cell { fill: #fffdf8; stroke: #d1c5b1; stroke-width: 1; }
    </style>

    <pattern id="perf-pad-grid" patternUnits="userSpaceOnUse" x="165" y="255" width="50" height="50">
      <circle class="pad" cx="25" cy="25" r="7.5"/>
    </pattern>

    <g id="dip8">
      <rect x="0" y="0" width="110" height="200" rx="10" ry="10" fill="#eef3ff" stroke="#1d3b66" stroke-width="2.2"/>
      <path d="M 38 0 Q 55 -14 72 0" fill="none" stroke="#1d3b66" stroke-width="2.2"/>
      <line x1="0" y1="25" x2="-20" y2="25" stroke="#1d3b66" stroke-width="2.2"/>
      <line x1="0" y1="75" x2="-20" y2="75" stroke="#1d3b66" stroke-width="2.2"/>
      <line x1="0" y1="125" x2="-20" y2="125" stroke="#1d3b66" stroke-width="2.2"/>
      <line x1="0" y1="175" x2="-20" y2="175" stroke="#1d3b66" stroke-width="2.2"/>
      <line x1="110" y1="25" x2="130" y2="25" stroke="#1d3b66" stroke-width="2.2"/>
      <line x1="110" y1="75" x2="130" y2="75" stroke="#1d3b66" stroke-width="2.2"/>
      <line x1="110" y1="125" x2="130" y2="125" stroke="#1d3b66" stroke-width="2.2"/>
      <line x1="110" y1="175" x2="130" y2="175" stroke="#1d3b66" stroke-width="2.2"/>
    </g>

    <g id="res-1k-body">
      <rect x="0" y="0" width="70" height="18" rx="4" ry="4" fill="#f2d5a0" stroke="#6f4f1a" stroke-width="1.3"/>
      <rect x="14" y="0" width="5" height="18" fill="#8b5a2b"/>
      <rect x="27" y="0" width="5" height="18" fill="#111"/>
      <rect x="40" y="0" width="5" height="18" fill="#c62828"/>
      <rect x="55" y="0" width="5" height="18" fill="#d4af37"/>
    </g>

    <g id="res-100k-body">
      <rect x="0" y="0" width="80" height="18" rx="4" ry="4" fill="#f2d5a0" stroke="#6f4f1a" stroke-width="1.3"/>
      <rect x="12" y="0" width="5" height="18" fill="#8b5a2b"/>
      <rect x="25" y="0" width="5" height="18" fill="#111"/>
      <rect x="38" y="0" width="5" height="18" fill="#f2c94c"/>
      <rect x="51" y="0" width="5" height="18" fill="#d4af37"/>
      <rect x="64" y="0" width="5" height="18" fill="#8b5a2b"/>
    </g>
  </defs>

  <rect class="bg" x="0" y="0" width="1800" height="1420"/>

  <text class="title" x="60" y="56">Direct CV conditioning perfboard placement map</text>
  <text class="subtitle" x="60" y="86">One conditioning channel on a square 2.54-style perfboard grid. This matches the same layout model as the CV output perfboard map: top rail, bottom rail, on-board part labels, and only node callouts outside the board.</text>

  <rect class="panel" x="50" y="120" width="1120" height="760"/>
  <text class="note" x="80" y="162">Main placement on square pad grid</text>
  <text class="small" x="80" y="188">Top rail is 3V3 on row A. Bottom rail is GND on row J. The off-board jack feeds SW1, and SW1 selects exactly one of the three conditioning paths before the shared ADC protection/filter stage.</text>

  <rect class="board" x="140" y="220" width="860" height="580"/>
  <rect x="165" y="255" width="800" height="500" fill="url(#perf-pad-grid)"/>

  <g>
    <text class="coord" x="185" y="242">1</text>
    <text class="coord" x="235" y="242">2</text>
    <text class="coord" x="285" y="242">3</text>
    <text class="coord" x="335" y="242">4</text>
    <text class="coord" x="385" y="242">5</text>
    <text class="coord" x="435" y="242">6</text>
    <text class="coord" x="485" y="242">7</text>
    <text class="coord" x="535" y="242">8</text>
    <text class="coord" x="585" y="242">9</text>
    <text class="coord" x="635" y="242">10</text>
    <text class="coord" x="685" y="242">11</text>
    <text class="coord" x="735" y="242">12</text>
    <text class="coord" x="785" y="242">13</text>
    <text class="coord" x="835" y="242">14</text>
    <text class="coord" x="885" y="242">15</text>
    <text class="coord" x="935" y="242">16</text>

    <text class="coord" x="146" y="284">A</text>
    <text class="coord" x="146" y="334">B</text>
    <text class="coord" x="146" y="384">C</text>
    <text class="coord" x="146" y="434">D</text>
    <text class="coord" x="146" y="484">E</text>
    <text class="coord" x="146" y="534">F</text>
    <text class="coord" x="146" y="584">G</text>
    <text class="coord" x="146" y="634">H</text>
    <text class="coord" x="146" y="684">I</text>
    <text class="coord" x="146" y="734">J</text>
  </g>

  <g>
    <path class="net3" d="M 190 280 L 940 280"/>
    <path class="netg" d="M 190 730 L 940 730"/>
    <text class="legend" x="812" y="272">3V3 rail A1-A16</text>
    <text class="legend" x="792" y="722">GND rail J1-J16</text>

    <path class="netsig" d="M 190 330 L 590 330"/>
    <path class="netsig" d="M 190 430 L 230 430"/>
    <path class="netsig" d="M 310 430 L 340 430"/>
    <path class="netsig" d="M 340 430 L 590 330"/>
    <path class="netg" d="M 340 430 L 340 730"/>

    <path class="netsig" d="M 190 580 L 390 580"/>
    <path class="netbias" d="M 390 530 L 460 530"/>
    <path class="net3" d="M 390 280 L 390 530"/>
    <path class="netg" d="M 390 530 L 390 730"/>
    <path class="netsig" d="M 610 430 L 610 330 L 590 330"/>

    <path class="netsig" d="M 590 330 L 630 330"/>
    <path class="netsig" d="M 700 330 L 790 330"/>
    <path class="net3" d="M 790 280 L 790 330"/>
    <path class="netg" d="M 840 730 L 840 330"/>
    <path class="netg" d="M 740 330 L 740 730"/>

    <path class="netsig" d="M 790 330 L 890 330"/>
    <path class="netsig" d="M 890 330 L 940 330"/>
  </g>

  <g>
    <path class="netsig" d="M 190 330 L 150 330 L 150 300 L 158 300"/>
    <path class="netsig" d="M 190 430 L 132 430 L 132 316 L 158 316"/>
    <path class="netsig" d="M 190 580 L 114 580 L 114 332 L 158 332"/>
    <path class="netg" d="M 190 730 L 96 730 L 96 348 L 158 348"/>
    <rect class="callout" x="58" y="282" width="100" height="78"/>
    <text class="tiny" x="70" y="302">J1 + SW1</text>
    <text class="tiny" x="70" y="318">common: jack tip</text>
    <text class="tiny" x="70" y="334">throws: B1, D1, G1</text>
    <text class="tiny" x="70" y="350">1 path at a time</text>

    <text class="small" x="392" y="322">Direct</text>

    <use href="#res-100k-body" x="230" y="421"/>
    <line x1="230" y1="430" x2="220" y2="430" stroke="#7a5a28" stroke-width="2"/>
    <line x1="310" y1="430" x2="340" y2="430" stroke="#7a5a28" stroke-width="2"/>
    <text class="small" x="270" y="412" text-anchor="middle">R1 100k</text>
    <text class="tiny" x="270" y="456" text-anchor="middle">D2-D3</text>

    <line x1="340" y1="430" x2="340" y2="645" stroke="#7a5a28" stroke-width="2"/>
    <use href="#res-100k-body" x="300" y="611" transform="rotate(90 340 620)"/>
    <line x1="340" y1="611" x2="340" y2="630" stroke="#7a5a28" stroke-width="2"/>
    <text class="small" x="368" y="638">R2 100k</text>
    <text class="tiny" x="368" y="654">D4 to J4</text>

    <use href="#dip8" x="500" y="405"/>
    <text class="small" x="555" y="470" text-anchor="middle">U1</text>
    <text class="tiny" x="555" y="488" text-anchor="middle">MCP6002-I/P</text>
    <text class="tiny" x="555" y="506" text-anchor="middle">E8-H8 / E11-H11</text>
    <text class="pinlabel" x="442" y="434">pin 1 OUT D8</text>
    <text class="pinlabel" x="442" y="484">pin 2 -IN E8</text>
    <text class="pinlabel" x="442" y="534">pin 3 +IN F8</text>
    <text class="pinlabel" x="442" y="584">pin 4 VSS G8</text>
    <text class="pinlabel" x="638" y="434">pin 8 VDD D11</text>

    <line x1="390" y1="280" x2="390" y2="495" stroke="#7a5a28" stroke-width="2"/>
    <use href="#res-100k-body" x="350" y="461" transform="rotate(90 390 470)"/>
    <text class="small" x="418" y="474">R3 100k</text>
    <text class="tiny" x="418" y="490">A5 to E5</text>

    <line x1="390" y1="530" x2="390" y2="645" stroke="#7a5a28" stroke-width="2"/>
    <use href="#res-100k-body" x="350" y="611" transform="rotate(90 390 620)"/>
    <line x1="390" y1="611" x2="390" y2="630" stroke="#7a5a28" stroke-width="2"/>
    <text class="small" x="418" y="624">R4 100k</text>
    <text class="tiny" x="418" y="640">G5 to J5</text>
    <text class="tiny" x="416" y="530">Vmid 1.65 V</text>

    <use href="#res-1k-body" x="630" y="321"/>
    <line x1="630" y1="330" x2="620" y2="330" stroke="#7a5a28" stroke-width="2"/>
    <line x1="700" y1="330" x2="790" y2="330" stroke="#7a5a28" stroke-width="2"/>
    <text class="small" x="665" y="312" text-anchor="middle">R5 1k</text>
    <text class="tiny" x="665" y="356" text-anchor="middle">B10-B11</text>

    <line x1="740" y1="330" x2="740" y2="383" stroke="#333" stroke-width="3"/>
    <line x1="718" y1="383" x2="762" y2="383" stroke="#333" stroke-width="3"/>
    <line x1="718" y1="407" x2="762" y2="407" stroke="#333" stroke-width="3"/>
    <line x1="740" y1="407" x2="740" y2="430" stroke="#333" stroke-width="3"/>
    <circle class="dots" cx="740" cy="330" r="6"/>
    <circle class="dotg" cx="740" cy="430" r="6"/>
    <text class="small" x="772" y="380">C1 1 nF</text>
    <text class="tiny" x="772" y="398">B13 to D13</text>
    <text class="tiny" x="772" y="414">D13 then drops to J13</text>

    <line x1="790" y1="280" x2="790" y2="303" stroke="#333" stroke-width="3"/>
    <rect x="780" y="303" width="20" height="44" rx="4" ry="4" fill="#f4e6c7" stroke="#7a5a28" stroke-width="1.4"/>
    <rect x="780" y="303" width="20" height="7" fill="#111"/>
    <line x1="790" y1="347" x2="790" y2="330" stroke="#333" stroke-width="3"/>
    <rect class="passive" x="806" y="300" width="54" height="26" rx="6" ry="6"/>
    <text class="tiny" x="818" y="318">D1</text>

    <line x1="840" y1="730" x2="840" y2="357" stroke="#333" stroke-width="3"/>
    <rect x="830" y="357" width="20" height="44" rx="4" ry="4" fill="#f4e6c7" stroke="#7a5a28" stroke-width="1.4"/>
    <rect x="830" y="394" width="20" height="7" fill="#111"/>
    <line x1="840" y1="357" x2="840" y2="330" stroke="#333" stroke-width="3"/>
    <rect class="passive" x="856" y="374" width="54" height="26" rx="6" ry="6"/>
    <text class="tiny" x="868" y="392">D2</text>

    <path class="netsig" d="M 890 330 L 1008 330 L 1008 608"/>
    <path class="netg" d="M 890 730 L 988 730 L 988 624 L 1008 624"/>
    <rect class="callout" x="1008" y="592" width="122" height="56"/>
    <text class="tiny" x="1020" y="612">ADC IN</text>
    <text class="tiny" x="1020" y="628">signal: B15</text>
    <text class="tiny" x="1020" y="644">ground: J15</text>
  </g>

  <rect class="panel" x="1200" y="120" width="550" height="520"/>
  <text class="note" x="1230" y="162">Inset: mode summary</text>
  <text class="small" x="1230" y="188">The three switch positions feed the same protected ADC node through different conditioning paths. SW1 must connect the jack tip to only one path at a time.</text>
  <rect class="callout" x="1230" y="220" width="490" height="210"/>
  <text class="small" x="1256" y="256">Pos 1: direct 0-5 V</text>
  <text class="tiny" x="1256" y="278">Route J1 directly to the merge node, then through R5, D1/D2, and C1 into AD1/AD2/AD3.</text>
  <text class="small" x="1256" y="314">Pos 2: 0-10 V attenuate</text>
  <text class="tiny" x="1256" y="336">Use R1 and R2 as a 2:1 divider, then feed the same protected node and ADC filter stage.</text>
  <text class="small" x="1256" y="372">Pos 3: bipolar shift</text>
  <text class="tiny" x="1256" y="394">Use the MCP6002-I/P stage with the 100k / 100k mid-rail bias so the ADC only sees the shifted 0-3.3 V range.</text>

  <text class="note" x="1230" y="474">Inset: SW1 wiring and switch type</text>
  <text class="small" x="1230" y="500">Use a single-pole three-throw selector: a panel-mount 1P3T rotary switch is the safest choice, or an SP3T ON-ON-ON toggle if its datasheet confirms one common plus three selectable throws.</text>
  <rect class="callout" x="1230" y="522" width="490" height="96"/>
  <text class="tiny" x="1250" y="546">Common or wiper terminal: connect to J1 tip only.</text>
  <text class="tiny" x="1250" y="564">Throw for direct mode: connect to B1, which lands straight on the shared merge node.</text>
  <text class="tiny" x="1250" y="582">Throw for attenuated mode: connect to D1, feeding the top of R1 so the D-row node is halved by R1 and R2.</text>
  <text class="tiny" x="1250" y="600">Throw for bipolar mode: connect to G1, feeding the MCP6002-I/P input stage and its 1.65 V bias network.</text>
  <text class="tiny" x="1250" y="618">Preferred behavior: break-before-make so adjacent positions do not momentarily short two paths together during switching.</text>

  <rect class="panel" x="50" y="900" width="1700" height="470"/>
  <text class="note" x="80" y="942">Hole-by-hole placement table</text>
  <text class="small" x="80" y="968">Coordinates below follow the main board above. The jack and switch are off-board panel parts; the perfboard carries the selectable conditioning network and the final ADC protection/filter stage.</text>

  <rect class="table-head" x="80" y="1000" width="150" height="40"/>
  <rect class="table-head" x="230" y="1000" width="170" height="40"/>
  <rect class="table-head" x="400" y="1000" width="230" height="40"/>
  <rect class="table-head" x="630" y="1000" width="220" height="40"/>
  <rect class="table-head" x="850" y="1000" width="860" height="40"/>
  <text class="small" x="100" y="1025">Part</text>
  <text class="small" x="256" y="1025">Pads</text>
  <text class="small" x="422" y="1025">Function</text>
  <text class="small" x="652" y="1025">Net</text>
  <text class="small" x="872" y="1025">Notes</text>

  <rect class="table-cell" x="80" y="1040" width="150" height="36"/>
  <rect class="table-cell" x="230" y="1040" width="170" height="36"/>
  <rect class="table-cell" x="400" y="1040" width="230" height="36"/>
  <rect class="table-cell" x="630" y="1040" width="220" height="36"/>
  <rect class="table-cell" x="850" y="1040" width="860" height="36"/>
  <text class="tiny" x="98" y="1063">J1 + SW1</text>
  <text class="tiny" x="248" y="1063">B1, D1, G1, J1</text>
  <text class="tiny" x="418" y="1063">panel input and mode select</text>
  <text class="tiny" x="648" y="1063">direct, atten, bipolar, ground</text>
  <text class="tiny" x="868" y="1063">Use a 1P3T selector. Jack tip goes to the switch common/wiper, the three throws go to B1 direct, D1 attenuated, and G1 bipolar, and panel ground returns to J1.</text>

  <rect class="table-cell" x="80" y="1076" width="150" height="36"/>
  <rect class="table-cell" x="230" y="1076" width="170" height="36"/>
  <rect class="table-cell" x="400" y="1076" width="230" height="36"/>
  <rect class="table-cell" x="630" y="1076" width="220" height="36"/>
  <rect class="table-cell" x="850" y="1076" width="860" height="36"/>
  <text class="tiny" x="98" y="1099">R1 100k</text>
  <text class="tiny" x="248" y="1099">D2 to D3</text>
  <text class="tiny" x="418" y="1099">0-10 V attenuator top leg</text>
  <text class="tiny" x="648" y="1099">switch pos2 to atten node</text>
  <text class="tiny" x="868" y="1099">The D-row attenuator node then routes upward to the shared merge point on B9.</text>

  <rect class="table-cell" x="80" y="1112" width="150" height="36"/>
  <rect class="table-cell" x="230" y="1112" width="170" height="36"/>
  <rect class="table-cell" x="400" y="1112" width="230" height="36"/>
  <rect class="table-cell" x="630" y="1112" width="220" height="36"/>
  <rect class="table-cell" x="850" y="1112" width="860" height="36"/>
  <text class="tiny" x="98" y="1135">R2 100k</text>
  <text class="tiny" x="248" y="1135">D4 to J4</text>
  <text class="tiny" x="418" y="1135">0-10 V attenuator lower leg</text>
  <text class="tiny" x="648" y="1135">atten node to GND</text>
  <text class="tiny" x="868" y="1135">This forms the 2:1 divider used when SW1 selects the attenuated 0-10 V path.</text>

  <rect class="table-cell" x="80" y="1148" width="150" height="36"/>
  <rect class="table-cell" x="230" y="1148" width="170" height="36"/>
  <rect class="table-cell" x="400" y="1148" width="230" height="36"/>
  <rect class="table-cell" x="630" y="1148" width="220" height="36"/>
  <rect class="table-cell" x="850" y="1148" width="860" height="36"/>
  <text class="tiny" x="98" y="1171">U1 socket</text>
  <text class="tiny" x="248" y="1171">E8-H8 and E11-H11</text>
  <text class="tiny" x="418" y="1171">MCP6002-I/P footprint</text>
  <text class="tiny" x="648" y="1171">bipolar shift stage</text>
  <text class="tiny" x="868" y="1171">Shown using one op-amp section. Pin 8 goes to 3V3, pin 4 goes to GND, and the output rises to the shared merge node.</text>

  <rect class="table-cell" x="80" y="1184" width="150" height="36"/>
  <rect class="table-cell" x="230" y="1184" width="170" height="36"/>
  <rect class="table-cell" x="400" y="1184" width="230" height="36"/>
  <rect class="table-cell" x="630" y="1184" width="220" height="36"/>
  <rect class="table-cell" x="850" y="1184" width="860" height="36"/>
  <text class="tiny" x="98" y="1207">R3 and R4</text>
  <text class="tiny" x="248" y="1207">A5-E5 and G5-J5</text>
  <text class="tiny" x="418" y="1207">mid-rail bias pair</text>
  <text class="tiny" x="648" y="1207">3V3 to GND through Vmid</text>
  <text class="tiny" x="868" y="1207">These two 100k parts create the 1.65 V bias node used by the optional bipolar conditioning path.</text>

  <rect class="table-cell" x="80" y="1220" width="150" height="36"/>
  <rect class="table-cell" x="230" y="1220" width="170" height="36"/>
  <rect class="table-cell" x="400" y="1220" width="230" height="36"/>
  <rect class="table-cell" x="630" y="1220" width="220" height="36"/>
  <rect class="table-cell" x="850" y="1220" width="860" height="36"/>
  <text class="tiny" x="98" y="1243">R5 1k</text>
  <text class="tiny" x="248" y="1243">B10 to B11</text>
  <text class="tiny" x="418" y="1243">series protection</text>
  <text class="tiny" x="648" y="1243">merge node to ADC node</text>
  <text class="tiny" x="868" y="1243">All three selectable paths merge before R5, then the final ADC protection/filter stage is common.</text>

  <rect class="table-cell" x="80" y="1256" width="150" height="36"/>
  <rect class="table-cell" x="230" y="1256" width="170" height="36"/>
  <rect class="table-cell" x="400" y="1256" width="230" height="36"/>
  <rect class="table-cell" x="630" y="1256" width="220" height="36"/>
  <rect class="table-cell" x="850" y="1256" width="860" height="36"/>
  <text class="tiny" x="98" y="1279">C1 1 nF</text>
  <text class="tiny" x="248" y="1279">B13 to D13</text>
  <text class="tiny" x="418" y="1279">ADC low-pass filter</text>
  <text class="tiny" x="648" y="1279">ADC node to GND</text>
  <text class="tiny" x="868" y="1279">D13 then links down to J13 so the capacitor stays near the ADC node while the real ground bus stays on row J.</text>

  <rect class="table-cell" x="80" y="1292" width="150" height="36"/>
  <rect class="table-cell" x="230" y="1292" width="170" height="36"/>
  <rect class="table-cell" x="400" y="1292" width="230" height="36"/>
  <rect class="table-cell" x="630" y="1292" width="220" height="36"/>
  <rect class="table-cell" x="850" y="1292" width="860" height="36"/>
  <text class="tiny" x="98" y="1315">D1 and D2</text>
  <text class="tiny" x="248" y="1315">A14-B14 and J15-B15</text>
  <text class="tiny" x="418" y="1315">ADC clamp pair</text>
  <text class="tiny" x="648" y="1315">ADC node to 3V3 and GND</text>
  <text class="tiny" x="868" y="1315">These are the two 1N4148 clamp diodes that keep the ADC node inside the safe range near the Waveshare ADC input.</text>

  <rect class="table-cell" x="80" y="1328" width="150" height="36"/>
  <rect class="table-cell" x="230" y="1328" width="170" height="36"/>
  <rect class="table-cell" x="400" y="1328" width="230" height="36"/>
  <rect class="table-cell" x="630" y="1328" width="220" height="36"/>
  <rect class="table-cell" x="850" y="1328" width="860" height="36"/>
  <text class="tiny" x="98" y="1351">ADC output header</text>
  <text class="tiny" x="248" y="1351">B15, J15</text>
  <text class="tiny" x="418" y="1351">conditioned output + ground</text>
  <text class="tiny" x="648" y="1351">AD1 / AD2 / AD3 and GND</text>
  <text class="tiny" x="868" y="1351">Take the conditioned node from B15 to one of the direct ADC inputs. Keep the ground return on the same board ground rail.</text>
</svg>