<svg xmlns="http://www.w3.org/2000/svg" width="1450" height="720" viewBox="0 0 1450 720" role="img" aria-label="Gate conditioning schematic">
  <defs>
    <style>
      .bg { fill: #f7f6f2; }
      .box { fill: #ffffff; stroke: #222; stroke-width: 2.2; rx: 14; ry: 14; }
      .block { fill: #eef9ee; stroke: #27632a; stroke-width: 2.2; rx: 14; ry: 14; }
      .label { fill: #111; font-family: Arial, Helvetica, sans-serif; font-size: 20px; font-weight: 700; }
      .small { fill: #333; font-family: Arial, Helvetica, sans-serif; font-size: 15px; }
      .tiny { fill: #555; font-family: Arial, Helvetica, sans-serif; font-size: 12px; }
      .wire { stroke: #2f2f2f; stroke-width: 3; fill: none; stroke-linecap: round; stroke-linejoin: round; }
      .lead { stroke: #2f2f2f; stroke-width: 2.2; fill: none; stroke-linecap: round; }
      .node { fill: #2f2f2f; }
      .rail3v3 { stroke: #a11; stroke-width: 3; fill: none; }
      .railgnd { stroke: #222; stroke-width: 3; fill: none; }
      .arrow { marker-end: url(#arrow); }
    </style>
    <marker id="arrow" viewBox="0 0 10 10" refX="8" refY="5" markerWidth="7" markerHeight="7" orient="auto-start-reverse">
      <path d="M 0 0 L 10 5 L 0 10 z" fill="#2f2f2f"/>
    </marker>

    <g id="res-10k">
      <line class="lead" x1="0" y1="8" x2="10" y2="8"/>
      <rect x="10" y="0" width="56" height="16" rx="3" ry="3" fill="#f2d5a0" stroke="#6f4f1a" stroke-width="1.1"/>
      <rect x="24" y="0" width="4" height="16" fill="#8b5a2b"/>
      <rect x="32" y="0" width="4" height="16" fill="#111111"/>
      <rect x="40" y="0" width="4" height="16" fill="#f57c00"/>
      <rect x="52" y="0" width="4" height="16" fill="#d4af37"/>
      <line class="lead" x1="66" y1="8" x2="76" y2="8"/>
    </g>

    <g id="res-100k">
      <line class="lead" x1="0" y1="8" x2="10" y2="8"/>
      <rect x="10" y="0" width="56" height="16" rx="3" ry="3" fill="#f2d5a0" stroke="#6f4f1a" stroke-width="1.1"/>
      <rect x="24" y="0" width="4" height="16" fill="#8b5a2b"/>
      <rect x="32" y="0" width="4" height="16" fill="#111111"/>
      <rect x="40" y="0" width="4" height="16" fill="#f2c94c"/>
      <rect x="52" y="0" width="4" height="16" fill="#d4af37"/>
      <line class="lead" x1="66" y1="8" x2="76" y2="8"/>
    </g>

    <g id="gnd">
      <line class="lead" x1="0" y1="0" x2="0" y2="6"/>
      <line class="lead" x1="-12" y1="6" x2="12" y2="6"/>
      <line class="lead" x1="-8" y1="11" x2="8" y2="11"/>
      <line class="lead" x1="-4" y1="16" x2="4" y2="16"/>
    </g>
  </defs>

  <rect class="bg" x="0" y="0" width="1450" height="720"/>

  <text class="label" x="40" y="46">Gate conditioning schematic</text>
  <text class="small" x="40" y="74">One channel only. Repeat this block for GATE0, GATE1, and GATE2.</text>

  <path class="rail3v3" d="M 950 90 L 1360 90"/>
  <text class="small" x="958" y="80">3V3</text>
  <path class="railgnd" d="M 820 660 L 1360 660"/>
  <text class="small" x="824" y="652">GND</text>

  <rect class="box" x="40" y="240" width="170" height="140"/>
  <text class="label" x="125" y="280" text-anchor="middle">J2</text>
  <text class="small" x="125" y="310" text-anchor="middle">Gate input</text>
  <text class="small" x="125" y="334" text-anchor="middle">source jack</text>
  <text class="tiny" x="125" y="362" text-anchor="middle">share ground with board</text>

  <path class="wire arrow" d="M 210 310 L 280 310"/>

  <use href="#res-10k" x="280" y="302"/>
  <text class="tiny" x="320" y="294">R5 10k</text>
  <path class="wire" d="M 356 310 L 430 310"/>
  <circle class="node" cx="430" cy="310" r="5"/>

  <use href="#res-100k" x="392" y="392" transform="rotate(90 430 400)"/>
  <text class="tiny" x="452" y="402">R6 100k</text>
  <path class="wire" d="M 430 438 L 430 470"/>
  <use href="#gnd" x="430" y="470"/>

  <path class="wire" d="M 430 310 L 520 310"/>
  <rect class="block" x="520" y="228" width="190" height="164"/>
  <text class="small" x="615" y="264" text-anchor="middle">D1/D2 1N4148-DIO</text>
  <text class="tiny" x="615" y="286" text-anchor="middle">small-signal clamp pair</text>
  <text class="tiny" x="615" y="306" text-anchor="middle">to 3V3 and GND</text>
  <text class="tiny" x="615" y="328" text-anchor="middle">protects Pi-side logic</text>
  <path class="wire" d="M 615 228 L 615 90"/>
  <path class="wire" d="M 615 392 L 615 660"/>

  <path class="wire" d="M 710 310 L 780 310"/>

  <rect class="block" x="780" y="228" width="220" height="164"/>
  <text class="small" x="890" y="264" text-anchor="middle">U2 SN74LVC14AN</text>
  <text class="tiny" x="890" y="286" text-anchor="middle">Schmitt trigger buffer</text>
  <text class="tiny" x="890" y="306" text-anchor="middle">powered from 3V3</text>
  <text class="tiny" x="890" y="328" text-anchor="middle">active-high digital output</text>
  <path class="wire" d="M 890 228 L 890 90"/>
  <path class="wire" d="M 890 392 L 890 660"/>

  <path class="wire arrow" d="M 1000 310 L 1190 310"/>

  <rect class="box" x="1190" y="240" width="190" height="140"/>
  <text class="label" x="1285" y="280" text-anchor="middle">GPIO IN</text>
  <text class="small" x="1285" y="310" text-anchor="middle">BCM16 / 19 / 20</text>
  <text class="tiny" x="1285" y="338" text-anchor="middle">one conditioning block</text>
  <text class="tiny" x="1285" y="356" text-anchor="middle">per gate channel</text>

  <rect class="box" x="40" y="560" width="500" height="110"/>
  <text class="small" x="60" y="592">Suggested parts</text>
  <text class="tiny" x="60" y="618">R5 = 10k series resistor</text>
  <text class="tiny" x="60" y="636">R6 = 100k pull-down to GND</text>
  <text class="tiny" x="60" y="654">D1/D2 = 1N4148-DIO clamp pair</text>

  <rect class="box" x="600" y="560" width="470" height="110"/>
  <text class="small" x="620" y="592">Behavior</text>
  <text class="tiny" x="620" y="618">Input is protected and clamped before the logic stage.</text>
  <text class="tiny" x="620" y="636">SN74LVC14AN cleans the edge and outputs stable 3.3 V logic.</text>
  <text class="tiny" x="620" y="654">This output goes to one Pi GPIO gate input.</text>
</svg>