<svg xmlns="http://www.w3.org/2000/svg" width="1600" height="860" viewBox="0 0 1600 860" role="img" aria-label="Power input and distribution schematic">
  <defs>
    <style>
      .bg { fill: #f7f6f2; }
      .panel { fill: #ffffff; stroke: #202020; stroke-width: 2.5; rx: 18; ry: 18; }
      .chip { fill: #eef3ff; stroke: #1d3b66; stroke-width: 2.5; rx: 16; ry: 16; }
      .green { fill: #eef9ee; stroke: #27632a; stroke-width: 2.5; rx: 16; ry: 16; }
      .label { fill: #111; font-family: Arial, Helvetica, sans-serif; font-size: 18px; font-weight: 700; }
      .small { fill: #333; font-family: Arial, Helvetica, sans-serif; font-size: 14px; }
      .tiny { fill: #555; font-family: Arial, Helvetica, sans-serif; font-size: 12px; }
      .title { fill: #111; font-family: Arial, Helvetica, sans-serif; font-size: 28px; font-weight: 700; }
      .subtitle { fill: #333; font-family: Arial, Helvetica, sans-serif; font-size: 16px; }
      .wire { stroke: #2f2f2f; stroke-width: 4; fill: none; }
      .arrow { marker-end: url(#arrow); }
      .rail12 { stroke: #8a1c1c; stroke-width: 4; fill: none; }
      .rail5 { stroke: #27632a; stroke-width: 4; fill: none; }
      .railgnd { stroke: #222; stroke-width: 4; fill: none; }
    </style>
    <marker id="arrow" viewBox="0 0 10 10" refX="8" refY="5" markerWidth="8" markerHeight="8" orient="auto-start-reverse">
      <path d="M 0 0 L 10 5 L 0 10 z" fill="#2f2f2f"/>
    </marker>
  </defs>

  <rect class="bg" x="0" y="0" width="1600" height="860"/>

  <text class="title" x="70" y="56">Power input and distribution</text>
  <text class="subtitle" x="70" y="84">12 V wall PSU in, protected 5 V_DIG for Pi, filtered 5 V_A for precision analog/reference stages</text>

  <path class="rail12" d="M 70 125 L 1530 125"/>
  <text class="small" x="84" y="116">12 V_IN</text>
  <path class="rail5" d="M 70 180 L 1530 180"/>
  <text class="small" x="84" y="170">5 V_DIG / 5 V_A</text>
  <path class="railgnd" d="M 70 790 L 1530 790"/>
  <text class="small" x="84" y="780">GND star point</text>

  <rect class="panel" x="70" y="220" width="360" height="250"/>
  <text class="label" x="90" y="256">J1 / input protection</text>
  <text class="small" x="90" y="284">12 V wall PSU input</text>
  <text class="tiny" x="90" y="316">J1 barrel jack, 5.5 x 2.1 mm</text>
  <text class="tiny" x="90" y="338">F1 MF-R110 polyfuse</text>
  <text class="tiny" x="90" y="360">D1 1N5819 reverse polarity diode</text>
  <text class="tiny" x="90" y="382">D2 1.5KE15A TVS across 12 V rail</text>
  <text class="tiny" x="90" y="404">C1 470 uF and C2 100 nF input decoupling</text>

  <rect class="chip" x="490" y="220" width="410" height="250"/>
  <text class="label" x="695" y="256" text-anchor="middle">U1 LM2596T-5.0</text>
  <text class="small" x="695" y="284" text-anchor="middle">5 V_DIG buck regulator, TO-220-5</text>
  <text class="tiny" x="695" y="316" text-anchor="middle">L1 33 uH, D3 1N5822, C3 330 uF</text>
  <text class="tiny" x="695" y="338" text-anchor="middle">C4 100 nF close to the regulator pins</text>
  <text class="tiny" x="695" y="360" text-anchor="middle">feeds Pi and digital logic rail</text>
  <text class="tiny" x="695" y="390" text-anchor="middle">keep buck return local until the star point</text>

  <path class="wire arrow" d="M 430 320 L 490 320"/>
  <path class="wire" d="M 695 220 L 695 180"/>
  <path class="wire" d="M 695 470 L 695 790"/>

  <rect class="green" x="960" y="220" width="400" height="250"/>
  <text class="label" x="1160" y="256" text-anchor="middle">Pi Zero 2 W</text>
  <text class="small" x="1160" y="284" text-anchor="middle">digital control section</text>
  <text class="tiny" x="1160" y="316" text-anchor="middle">5 V_DIG from buck regulator</text>
  <text class="tiny" x="1160" y="338" text-anchor="middle">3.3 V generated on board by the Pi</text>
  <text class="tiny" x="1160" y="360" text-anchor="middle">runtime and control logic execute here</text>
  <text class="tiny" x="1160" y="390" text-anchor="middle">power return lands at the star ground</text>

  <path class="wire arrow" d="M 900 320 L 960 320"/>
  <path class="wire" d="M 1160 220 L 1160 180"/>
  <path class="wire" d="M 1160 470 L 1160 790"/>

  <rect class="panel" x="70" y="520" width="1460" height="220"/>
  <text class="label" x="90" y="556">5 V_A isolation branch</text>
  <text class="small" x="90" y="584">Filtered analog rail for the precision output and reference stages</text>
  <text class="tiny" x="90" y="616">RISO 10 ohm / 1-2 W from 5 V_DIG</text>
  <text class="tiny" x="90" y="638">C5 470 uF reservoir capacitor</text>
  <text class="tiny" x="90" y="660">C6 100 nF C0G decoupling capacitor</text>
  <text class="tiny" x="90" y="682">this branch feeds the reference and op-amps only</text>
  <text class="tiny" x="90" y="704">quiet return goes to the same star ground</text>
</svg>
